<?xml version="1.0" encoding="utf-8"?>
<!-- Generator: Adobe Illustrator 16.0.0, SVG Export Plug-In . SVG Version: 6.00 Build 0)  -->
<!DOCTYPE svg PUBLIC "-//W3C//DTD SVG 1.1//EN" "http://www.w3.org/Graphics/SVG/1.1/DTD/svg11.dtd">
<svg version="1.1" id="Capa_1" xmlns="http://www.w3.org/2000/svg" xmlns:xlink="http://www.w3.org/1999/xlink" x="0px" y="0px"
	 width="356.07px" height="142.116px" viewBox="0 0 356.07 142.116" enable-background="new 0 0 356.07 142.116"
	 xml:space="preserve">
<g>
	<path fill="#FFFFFF" d="M75.244,100.262H55.96V64.708c0-4.098-0.804-7.111-2.411-9.039c-1.608-1.928-3.817-2.893-6.628-2.893
		c-1.126,0-2.351,0.262-3.676,0.783c-1.326,0.523-2.612,1.286-3.856,2.29c-1.247,1.006-2.392,2.19-3.435,3.556
		c-1.045,1.367-1.849,2.892-2.41,4.58v36.277H14.259V12.281h19.284v35.313c2.329-3.776,5.402-6.689,9.22-8.738
		c3.815-2.049,8.015-3.073,12.595-3.073c4.258,0,7.693,0.744,10.305,2.229c2.61,1.488,4.619,3.375,6.026,5.665
		c1.405,2.29,2.35,4.862,2.833,7.713c0.482,2.853,0.723,5.646,0.723,8.376V100.262z"/>
	<path fill="#FFFFFF" d="M99.71,101.467c-6.508,0-11.431-2.028-14.764-6.086c-3.335-4.056-5.001-10.022-5.001-17.897V36.988h19.283
		v36.277c0,3.857,0.763,6.81,2.29,8.858c1.525,2.049,3.695,3.073,6.508,3.073c2.57,0,5.062-0.682,7.472-2.049
		c2.411-1.365,4.539-3.736,6.388-7.111V36.988h19.284v41.581c0,1.928,0.301,3.274,0.904,4.037c0.603,0.765,1.667,1.226,3.194,1.386
		v16.271c-1.85,0.401-3.417,0.663-4.701,0.783c-1.286,0.121-2.452,0.181-3.495,0.181c-6.911,0-10.847-2.691-11.811-8.075
		l-0.362-3.857c-2.893,4.179-6.489,7.252-10.787,9.22C109.813,100.482,105.013,101.467,99.71,101.467z"/>
	<path fill="#FFFFFF" d="M143.941,68.565c0-4.339,0.763-8.497,2.29-12.474c1.525-3.978,3.736-7.473,6.628-10.486
		c2.893-3.013,6.448-5.402,10.667-7.171c4.218-1.767,9.019-2.651,14.402-2.651c7.311,0,13.457,1.548,18.44,4.64
		c4.981,3.094,8.717,7.131,11.208,12.112L188.776,58.2c-2.492-4.017-6.147-6.026-10.968-6.026c-4.019,0-7.373,1.488-10.063,4.459
		c-2.693,2.974-4.038,6.951-4.038,11.932c0,2.491,0.362,4.76,1.085,6.81c0.723,2.049,1.727,3.796,3.013,5.243
		c1.285,1.446,2.791,2.572,4.52,3.375c1.727,0.804,3.556,1.205,5.484,1.205c2.411,0,4.62-0.582,6.629-1.748
		c2.007-1.164,3.495-2.67,4.459-4.52l18.801,5.785c-2.331,4.902-6.047,8.918-11.148,12.052c-5.103,3.134-11.31,4.7-18.621,4.7
		c-5.303,0-10.063-0.904-14.282-2.711c-4.218-1.808-7.794-4.218-10.727-7.231c-2.934-3.013-5.164-6.508-6.689-10.485
		C144.704,77.062,143.941,72.904,143.941,68.565z"/>
	<path fill="#FFFFFF" d="M229.511,101.467c-3.133,0-6.047-0.502-8.738-1.506c-2.693-1.004-5.001-2.411-6.93-4.218
		c-1.928-1.808-3.456-3.936-4.58-6.388c-1.126-2.45-1.688-5.122-1.688-8.015c0-3.134,0.663-5.985,1.989-8.557
		c1.326-2.571,3.194-4.78,5.604-6.629c2.41-1.847,5.261-3.293,8.557-4.339c3.293-1.043,6.949-1.567,10.967-1.567
		c2.651,0,5.222,0.222,7.713,0.663c2.49,0.442,4.659,1.105,6.508,1.989v-2.893c0-7.311-4.218-10.968-12.655-10.968
		c-3.456,0-6.75,0.584-9.883,1.748c-3.134,1.166-6.429,2.914-9.883,5.243l-5.665-12.052c4.177-2.73,8.516-4.779,13.016-6.146
		c4.499-1.365,9.28-2.049,14.342-2.049c9.561,0,16.952,2.25,22.176,6.749c5.222,4.501,7.834,11.088,7.834,19.766v16.271
		c0,1.928,0.301,3.274,0.904,4.037c0.603,0.765,1.667,1.226,3.194,1.386v16.271c-1.688,0.401-3.214,0.663-4.58,0.783
		c-1.367,0.121-2.612,0.181-3.736,0.181c-3.616,0-6.348-0.705-8.196-2.109c-1.849-1.405-3.013-3.394-3.495-5.966l-0.361-2.893
		c-2.813,3.616-6.167,6.388-10.064,8.316C237.967,100.503,233.85,101.467,229.511,101.467z M235.176,87.607
		c2.089,0,4.117-0.362,6.086-1.085c1.968-0.723,3.595-1.687,4.881-2.893c1.847-1.446,2.772-2.971,2.772-4.58v-6.026
		c-1.688-0.642-3.516-1.145-5.484-1.506c-1.97-0.362-3.796-0.542-5.484-0.542c-3.536,0-6.448,0.804-8.738,2.411
		c-2.29,1.608-3.435,3.697-3.435,6.267c0,2.332,0.883,4.239,2.651,5.725C230.193,86.865,232.443,87.607,235.176,87.607z"/>
	<path fill="#FFFFFF" d="M316.167,101.467c-4.821,0-9-1.005-12.534-3.013c-3.537-2.008-6.267-4.821-8.195-8.437v35.916h-19.284
		V36.988h16.752v10.245c2.33-3.616,5.243-6.427,8.738-8.437c3.495-2.008,7.653-3.013,12.474-3.013c4.258,0,8.175,0.844,11.751,2.531
		c3.574,1.688,6.668,3.998,9.28,6.93c2.609,2.934,4.658,6.388,6.146,10.365c1.485,3.978,2.229,8.256,2.229,12.836
		c0,4.742-0.684,9.12-2.049,13.137c-1.367,4.019-3.254,7.493-5.665,10.425c-2.41,2.934-5.303,5.243-8.678,6.93
		C323.76,100.624,320.103,101.467,316.167,101.467z M309.658,85.197c2.089,0,3.996-0.461,5.725-1.386
		c1.727-0.923,3.233-2.149,4.52-3.676c1.284-1.525,2.269-3.314,2.952-5.363c0.682-2.049,1.024-4.197,1.024-6.448
		c0-2.33-0.382-4.478-1.145-6.448c-0.765-1.968-1.808-3.676-3.134-5.123c-1.326-1.446-2.934-2.57-4.821-3.375
		c-1.889-0.802-3.917-1.205-6.086-1.205c-2.651,0-5.203,0.783-7.653,2.35c-2.452,1.567-4.32,3.676-5.604,6.327v13.017
		c1.284,3.215,3.233,5.906,5.845,8.075C303.892,84.112,306.685,85.197,309.658,85.197z"/>
</g>
</svg>
