<?xml version="1.0" encoding="utf-8"?>
<!-- Generator: Adobe Illustrator 16.0.0, SVG Export Plug-In . SVG Version: 6.00 Build 0)  -->
<!DOCTYPE svg PUBLIC "-//W3C//DTD SVG 1.1//EN" "http://www.w3.org/Graphics/SVG/1.1/DTD/svg11.dtd">
<svg version="1.1" id="Capa_1" xmlns="http://www.w3.org/2000/svg" xmlns:xlink="http://www.w3.org/1999/xlink" x="0px" y="0px"
	 width="356.07px" height="142.117px" viewBox="0 0 356.07 142.117" enable-background="new 0 0 356.07 142.117"
	 xml:space="preserve">
<rect x="12.535" y="28.559" fill="#5D5D5D" width="89" height="92"/>
<text transform="matrix(1 0 0 1 115.3867 107.9512)"><tspan x="0" y="0" fill="#5D5D5D" font-family="'Raleway-ExtraBold'" font-size="83.3775" letter-spacing="-5">h</tspan><tspan x="45.857" y="0" fill="#5D5D5D" font-family="'Raleway-ExtraBold'" font-size="83.3775" letter-spacing="-5">u</tspan><tspan x="92.299" y="0" fill="#5D5D5D" font-family="'Raleway-ExtraBold'" font-size="83.3775" letter-spacing="-3">c</tspan><tspan x="136.488" y="0" fill="#5D5D5D" font-family="'Raleway-ExtraBold'" font-size="83.3775" letter-spacing="-4">a</tspan><tspan x="181.179" y="0" fill="#5D5D5D" font-family="'Raleway-ExtraBold'" font-size="83.3775">p</tspan></text>
<path fill="#4C4C4C" d="M101.302,56.4L77.314,40.284c1.419,2.203,2.324,3.994,2.324,5.998c0,3.611-2.928,6.54-6.54,6.54
	c-1.068,0-2.072-0.261-2.962-0.714l3.937,2.645l-3.114-1.003L45.9,40.284c1.42,2.203,2.324,3.994,2.324,5.998
	c0,3.611-2.928,6.54-6.54,6.54c-1.067,0-2.072-0.261-2.961-0.714l3.936,2.645h-6.562v44.391l2.696,1.812h-3.21v6.792L56.817,121.3
	h44.485V56.4z"/>
<g>
	<circle fill="#EFAB22" cx="41.684" cy="45.28" r="6.54"/>
	<circle fill="#EFAB22" cx="72.998" cy="45.28" r="6.54"/>
	<g>
		<path fill="#EFAB22" d="M78.586,54.753v44.149h-9.754v-18.48H45.85v18.48h-9.754V54.753h9.754v16.94h22.982v-16.94H78.586z"/>
	</g>
	<g>
		<g>
			<path fill="#EFAB22" d="M35.582,107.115v-6.159h12.834v6.159H35.582z"/>
		</g>
		<g>
			<path fill="#EFAB22" d="M66.266,107.115v-6.159h12.833v6.159H66.266z"/>
		</g>
	</g>
</g>
</svg>
